<svg xmlns="http://www.w3.org/2000/svg" xmlns:xlink="http://www.w3.org/1999/xlink" width="546" zoomAndPan="magnify" viewBox="0 0 409.5 211.499994" height="282" preserveAspectRatio="xMidYMid meet" version="1.0"><defs><g/><clipPath id="700de7bfaf"><path d="M 155 23 L 378 23 L 378 172 L 155 172 Z M 155 23 " clip-rule="nonzero"/></clipPath><clipPath id="8515c3b9b3"><path d="M 167.527344 0 L 408.488281 46.566406 L 379.953125 194.226562 L 138.992188 147.664062 Z M 167.527344 0 " clip-rule="nonzero"/></clipPath><clipPath id="acf06d8cc4"><path d="M 167.527344 0 L 408.488281 46.566406 L 379.953125 194.226562 L 138.992188 147.664062 Z M 167.527344 0 " clip-rule="nonzero"/></clipPath><clipPath id="b9290e7ed5"><path d="M 204 72 L 329 72 L 329 164 L 204 164 Z M 204 72 " clip-rule="nonzero"/></clipPath><clipPath id="8cdf25d737"><path d="M 167.527344 0 L 408.488281 46.566406 L 379.953125 194.226562 L 138.992188 147.664062 Z M 167.527344 0 " clip-rule="nonzero"/></clipPath><clipPath id="dbcd453dda"><path d="M 167.527344 0 L 408.488281 46.566406 L 379.953125 194.226562 L 138.992188 147.664062 Z M 167.527344 0 " clip-rule="nonzero"/></clipPath><clipPath id="52ce0b4721"><path d="M 204 72 L 325 72 L 325 160 L 204 160 Z M 204 72 " clip-rule="nonzero"/></clipPath><clipPath id="c5ac43c3fe"><path d="M 167.527344 0 L 408.488281 46.566406 L 379.953125 194.226562 L 138.992188 147.664062 Z M 167.527344 0 " clip-rule="nonzero"/></clipPath><clipPath id="82231924bd"><path d="M 167.527344 0 L 408.488281 46.566406 L 379.953125 194.226562 L 138.992188 147.664062 Z M 167.527344 0 " clip-rule="nonzero"/></clipPath><clipPath id="802273e631"><path d="M 204 72 L 303 72 L 303 146 L 204 146 Z M 204 72 " clip-rule="nonzero"/></clipPath><clipPath id="072048103f"><path d="M 167.527344 0 L 408.488281 46.566406 L 379.953125 194.226562 L 138.992188 147.664062 Z M 167.527344 0 " clip-rule="nonzero"/></clipPath><clipPath id="1180b7ad20"><path d="M 167.527344 0 L 408.488281 46.566406 L 379.953125 194.226562 L 138.992188 147.664062 Z M 167.527344 0 " clip-rule="nonzero"/></clipPath><clipPath id="80e7cf4d50"><path d="M 242 78 L 279 78 L 279 93 L 242 93 Z M 242 78 " clip-rule="nonzero"/></clipPath><clipPath id="3d4c6a67b6"><path d="M 167.527344 0 L 408.488281 46.566406 L 379.953125 194.226562 L 138.992188 147.664062 Z M 167.527344 0 " clip-rule="nonzero"/></clipPath><clipPath id="61d7496dde"><path d="M 167.527344 0 L 408.488281 46.566406 L 379.953125 194.226562 L 138.992188 147.664062 Z M 167.527344 0 " clip-rule="nonzero"/></clipPath><clipPath id="e42d962d1c"><path d="M 139 144 L 380 144 L 380 195 L 139 195 Z M 139 144 " clip-rule="nonzero"/></clipPath><clipPath id="99015f0503"><path d="M 167.527344 0 L 408.488281 46.566406 L 379.953125 194.226562 L 138.992188 147.664062 Z M 167.527344 0 " clip-rule="nonzero"/></clipPath><clipPath id="37aa6f1834"><path d="M 167.527344 0 L 408.488281 46.566406 L 379.953125 194.226562 L 138.992188 147.664062 Z M 167.527344 0 " clip-rule="nonzero"/></clipPath><clipPath id="e1f57d6c2f"><path d="M 138 143 L 381 143 L 381 195 L 138 195 Z M 138 143 " clip-rule="nonzero"/></clipPath><clipPath id="dd5322622f"><path d="M 167.527344 0 L 408.488281 46.566406 L 379.953125 194.226562 L 138.992188 147.664062 Z M 167.527344 0 " clip-rule="nonzero"/></clipPath><clipPath id="2b40f535f8"><path d="M 167.527344 0 L 408.488281 46.566406 L 379.953125 194.226562 L 138.992188 147.664062 Z M 167.527344 0 " clip-rule="nonzero"/></clipPath></defs><g clip-path="url(#700de7bfaf)"><g clip-path="url(#8515c3b9b3)"><g clip-path="url(#acf06d8cc4)"><path fill="#dcb958" d="M 267.679688 66.726562 C 256.808594 54.753906 268.976562 51.292969 261.082031 38.460938 C 260.164062 54.527344 252.375 55.394531 256.628906 67.65625 C 260.785156 66.835938 263.46875 66.855469 267.679688 66.730469 Z M 233.601562 75.261719 C 218.191406 70.285156 227 61.238281 213.765625 54.058594 C 220.984375 68.449219 214.71875 73.050781 224.449219 81.554688 C 227.679688 78.738281 229.992188 77.441406 233.601562 75.257812 Z M 220.257812 84.808594 C 200.46875 83.417969 197.554688 64.546875 181.914062 59.152344 C 185.609375 63.304688 189.425781 69.097656 192.78125 76.628906 C 196.007812 83.875 202.738281 90.109375 211.875 94.5625 C 214.304688 91.035156 217.414062 87.886719 220.257812 84.8125 Z M 344.898438 171.566406 C 339.578125 165.789062 338.9375 161.355469 329.429688 159.453125 C 328.820312 161.324219 328.074219 163.136719 327.195312 164.894531 C 333.273438 167.070312 339.21875 169.28125 344.902344 171.566406 Z M 208.324219 99.683594 C 192.546875 103.070312 195.597656 90.851562 180.53125 91.195312 C 194.007812 100.042969 190.875 107.183594 203.574219 109.703125 C 204.980469 105.660156 206.300781 103.355469 208.324219 99.683594 Z M 201.566406 114.625 C 183.707031 123.296875 171.769531 108.429688 155.546875 111.539062 C 160.828125 113.3125 167.03125 116.445312 173.675781 121.226562 C 180.144531 125.917969 189 127.9375 199.199219 127.222656 C 199.519531 122.972656 200.660156 118.695312 201.570312 114.621094 Z M 331.433594 154.59375 C 349.304688 145.863281 361.242188 160.726562 377.464844 157.613281 C 372.246094 155.851562 365.980469 152.707031 359.335938 147.925781 C 352.929688 143.246094 344.011719 141.214844 333.8125 141.929688 C 333.550781 146.191406 332.414062 150.472656 331.429688 154.589844 Z M 334.390625 135.730469 C 346.367188 124.859375 349.765625 137.015625 362.644531 129.195312 C 346.589844 128.214844 345.707031 120.484375 333.460938 124.679688 C 334.285156 128.835938 334.265625 131.519531 334.386719 135.730469 Z M 198.675781 133.4375 C 186.777344 144.253906 183.277344 132.273438 170.5625 139.875 C 179.667969 139.636719 189.164062 139.660156 198.949219 140.113281 C 198.730469 138.007812 198.742188 136.011719 198.675781 133.4375 Z M 332.734375 119.414062 C 343.851562 102.941406 361.632812 109.878906 374.097656 99.039062 C 368.691406 100.183594 361.738281 100.585938 353.601562 99.703125 C 345.6875 98.925781 336.925781 101.601562 328.515625 107.289062 C 330.332031 111.140625 331.515625 115.367188 332.730469 119.414062 Z M 325.851562 101.652344 C 330.757812 86.289062 339.820312 95.039062 347.058594 81.816406 C 332.664062 89.035156 328.003906 82.757812 319.550781 92.558594 C 322.378906 95.730469 323.675781 98.042969 325.859375 101.652344 Z M 316.296875 88.371094 C 317.699219 68.519531 336.507812 65.59375 341.964844 49.964844 C 337.808594 53.660156 331.945312 57.527344 324.488281 60.832031 C 317.230469 64.117188 311.003906 70.789062 306.542969 79.984375 C 310.082031 82.355469 313.230469 85.464844 316.292969 88.367188 Z M 301.433594 76.375 C 298.046875 60.597656 310.253906 63.707031 309.914062 48.644531 C 301.015625 62.046875 293.859375 58.976562 291.414062 71.628906 C 295.453125 73.035156 297.75 74.417969 301.433594 76.378906 Z M 251.363281 68.386719 C 234.890625 57.265625 241.765625 39.472656 230.941406 26.945312 C 232.070312 32.414062 232.476562 39.367188 231.652344 47.515625 C 230.8125 55.417969 233.503906 64.121094 239.238281 72.601562 C 243.042969 70.710938 247.316406 69.601562 251.363281 68.382812 Z M 286.480469 69.671875 C 277.8125 51.8125 292.6875 39.816406 289.515625 23.582031 C 287.804688 28.875 284.667969 35.082031 279.875 41.777344 C 275.195312 48.183594 273.164062 57.101562 273.878906 67.300781 C 278.140625 67.5625 282.421875 68.699219 286.480469 69.671875 Z M 286.480469 69.671875 " fill-opacity="1" fill-rule="evenodd"/></g></g></g><g clip-path="url(#b9290e7ed5)"><g clip-path="url(#8cdf25d737)"><g clip-path="url(#dbcd453dda)"><path fill="#dcb958" d="M 278.3125 73.46875 C 312.042969 79.988281 334.105469 112.617188 327.578125 146.410156 C 326.449219 152.246094 324.542969 157.816406 321.847656 163.113281 C 303.835938 157.070312 284.394531 151.9375 263.914062 147.980469 C 243.433594 144.023438 223.480469 141.542969 204.570312 140.449219 C 203.992188 134.527344 204.277344 128.644531 205.417969 122.804688 C 211.945312 89.011719 244.578125 66.949219 278.3125 73.46875 Z M 278.3125 73.46875 " fill-opacity="1" fill-rule="evenodd"/></g></g></g><g clip-path="url(#52ce0b4721)"><g clip-path="url(#c5ac43c3fe)"><g clip-path="url(#82231924bd)"><path fill="#dcb958" d="M 278.3125 73.46875 C 299.871094 77.636719 316.6875 92.507812 324.316406 111.539062 C 325.273438 118.386719 325.101562 125.207031 323.804688 132 C 322.832031 137.070312 321.246094 141.941406 319.054688 146.617188 C 316.859375 151.292969 314.125 155.625 310.847656 159.613281 C 296.039062 155.066406 280.300781 151.148438 263.917969 147.980469 C 243.4375 144.023438 223.484375 141.542969 204.574219 140.449219 C 203.996094 134.527344 204.28125 128.644531 205.421875 122.804688 C 211.953125 89.011719 244.582031 66.949219 278.316406 73.46875 Z M 278.3125 73.46875 " fill-opacity="1" fill-rule="evenodd"/></g></g></g><g clip-path="url(#802273e631)"><g clip-path="url(#072048103f)"><g clip-path="url(#1180b7ad20)"><path fill="#dcb958" d="M 278.3125 73.46875 C 287.167969 75.179688 295.179688 78.664062 302.058594 83.492188 C 302.113281 87.769531 301.730469 92.007812 300.910156 96.207031 C 295.894531 122.167969 275.394531 141.265625 250.804688 145.636719 C 238.328125 143.597656 226.140625 142.097656 214.246094 141.132812 C 210.757812 139.535156 207.4375 137.644531 204.285156 135.457031 C 204.226562 131.199219 204.601562 126.984375 205.417969 122.804688 C 211.945312 89.011719 244.578125 66.949219 278.3125 73.46875 Z M 278.3125 73.46875 " fill-opacity="1" fill-rule="evenodd"/></g></g></g><g clip-path="url(#80e7cf4d50)"><g clip-path="url(#3d4c6a67b6)"><g clip-path="url(#61d7496dde)"><path fill="#dcb958" d="M 259.382812 78.933594 C 269.449219 77.628906 277.976562 79.402344 278.410156 82.984375 C 278.855469 86.511719 271.082031 90.503906 261.082031 91.820312 C 251.019531 93.125 242.5 91.292969 242.066406 87.707031 C 241.5625 84.171875 249.382812 80.25 259.382812 78.933594 Z M 259.382812 78.933594 " fill-opacity="1" fill-rule="evenodd"/></g></g></g><g clip-path="url(#e42d962d1c)"><g clip-path="url(#99015f0503)"><g clip-path="url(#37aa6f1834)"><path fill="#dcb958" d="M 263.144531 151.957031 C 309.648438 160.941406 350.546875 176.28125 379.953125 194.207031 C 346.917969 180.511719 306.28125 168.347656 261.644531 159.722656 C 217.007812 151.097656 174.761719 147.25 139.003906 147.648438 C 172.96875 141.964844 216.699219 142.984375 263.144531 151.960938 Z M 263.144531 151.957031 " fill-opacity="1" fill-rule="evenodd"/></g></g></g><g clip-path="url(#e1f57d6c2f)"><g clip-path="url(#dd5322622f)"><g clip-path="url(#2b40f535f8)"><path stroke-linecap="butt" transform="matrix(0.103657, 0.0200315, -0.0200315, 0.103657, 167.525573, 0.00815476)" fill="none" stroke-linejoin="miter" d="M 1162.323642 1241.261263 C 1610.950696 1241.239009 2018.869501 1310.395851 2324.559787 1424.2551 C 1992.724033 1356.260475 1592.946625 1316.167648 1162.330044 1316.176375 C 731.713462 1316.185102 331.915134 1356.32615 0.0880013 1424.294741 C 305.742379 1310.397141 714.262564 1241.287196 1162.330663 1241.297591 Z M 1162.323642 1241.261263 " stroke="#000000" stroke-width="0.57" stroke-opacity="1" stroke-miterlimit="10"/></g></g></g><g fill="#b8860b" fill-opacity="1"><g transform="translate(9.606241, 194.931518)"><g><path d="M 17.9375 -21.984375 C 17.863281 -21.003906 17.8125 -20.0625 17.78125 -19.15625 C 17.75 -18.25 17.734375 -17.554688 17.734375 -17.078125 C 17.734375 -16.660156 17.742188 -16.253906 17.765625 -15.859375 C 17.785156 -15.472656 17.804688 -15.15625 17.828125 -14.90625 L 17.109375 -14.90625 C 16.878906 -16.519531 16.507812 -17.789062 16 -18.71875 C 15.5 -19.65625 14.878906 -20.3125 14.140625 -20.6875 C 13.410156 -21.070312 12.597656 -21.265625 11.703125 -21.265625 L 10.859375 -21.265625 C 10.304688 -21.265625 9.878906 -21.21875 9.578125 -21.125 C 9.273438 -21.03125 9.078125 -20.835938 8.984375 -20.546875 C 8.890625 -20.265625 8.84375 -19.8125 8.84375 -19.1875 L 8.84375 -2.796875 C 8.84375 -2.191406 8.890625 -1.738281 8.984375 -1.4375 C 9.078125 -1.144531 9.273438 -0.953125 9.578125 -0.859375 C 9.878906 -0.765625 10.304688 -0.71875 10.859375 -0.71875 L 12.140625 -0.71875 C 12.941406 -0.71875 13.707031 -0.925781 14.4375 -1.34375 C 15.175781 -1.769531 15.835938 -2.492188 16.421875 -3.515625 C 17.003906 -4.546875 17.441406 -5.941406 17.734375 -7.703125 L 18.4375 -7.703125 C 18.375 -6.992188 18.34375 -6.082031 18.34375 -4.96875 C 18.34375 -4.46875 18.351562 -3.757812 18.375 -2.84375 C 18.394531 -1.9375 18.457031 -0.988281 18.5625 0 C 17.507812 -0.0390625 16.320312 -0.0664062 15 -0.078125 C 13.675781 -0.0859375 12.492188 -0.09375 11.453125 -0.09375 C 10.921875 -0.09375 10.238281 -0.09375 9.40625 -0.09375 C 8.582031 -0.09375 7.679688 -0.0859375 6.703125 -0.078125 C 5.734375 -0.0664062 4.75 -0.0546875 3.75 -0.046875 C 2.757812 -0.0351562 1.832031 -0.0195312 0.96875 0 L 0.96875 -0.625 C 1.601562 -0.664062 2.082031 -0.75 2.40625 -0.875 C 2.726562 -1 2.945312 -1.242188 3.0625 -1.609375 C 3.175781 -1.984375 3.234375 -2.546875 3.234375 -3.296875 L 3.234375 -18.6875 C 3.234375 -19.457031 3.175781 -20.019531 3.0625 -20.375 C 2.945312 -20.738281 2.726562 -20.988281 2.40625 -21.125 C 2.082031 -21.257812 1.601562 -21.335938 0.96875 -21.359375 L 0.96875 -21.984375 C 1.851562 -21.960938 2.785156 -21.945312 3.765625 -21.9375 C 4.753906 -21.925781 5.726562 -21.914062 6.6875 -21.90625 C 7.65625 -21.894531 8.554688 -21.890625 9.390625 -21.890625 C 10.234375 -21.890625 10.921875 -21.890625 11.453125 -21.890625 C 12.410156 -21.890625 13.492188 -21.894531 14.703125 -21.90625 C 15.910156 -21.914062 16.988281 -21.941406 17.9375 -21.984375 Z M 13.25 -11.359375 C 13.25 -11.359375 13.25 -11.253906 13.25 -11.046875 C 13.25 -10.847656 13.25 -10.75 13.25 -10.75 L 7.921875 -10.75 C 7.921875 -10.75 7.921875 -10.847656 7.921875 -11.046875 C 7.921875 -11.253906 7.921875 -11.359375 7.921875 -11.359375 Z M 14.15625 -15.46875 C 14.070312 -14.28125 14.035156 -13.375 14.046875 -12.75 C 14.054688 -12.132812 14.0625 -11.566406 14.0625 -11.046875 C 14.0625 -10.535156 14.070312 -9.96875 14.09375 -9.34375 C 14.113281 -8.71875 14.164062 -7.816406 14.25 -6.640625 L 13.53125 -6.640625 C 13.425781 -7.390625 13.207031 -8.070312 12.875 -8.6875 C 12.550781 -9.3125 12.109375 -9.8125 11.546875 -10.1875 C 10.992188 -10.5625 10.3125 -10.75 9.5 -10.75 L 9.5 -11.359375 C 10.101562 -11.359375 10.628906 -11.488281 11.078125 -11.75 C 11.535156 -12.007812 11.925781 -12.34375 12.25 -12.75 C 12.570312 -13.164062 12.832031 -13.613281 13.03125 -14.09375 C 13.238281 -14.570312 13.375 -15.03125 13.4375 -15.46875 Z M 14.15625 -15.46875 "/></g></g></g><g fill="#b8860b" fill-opacity="1"><g transform="translate(29.524844, 194.931518)"><g><path d="M 7.484375 -24.28125 L 7.484375 -2.890625 C 7.484375 -2.015625 7.625 -1.421875 7.90625 -1.109375 C 8.1875 -0.804688 8.664062 -0.65625 9.34375 -0.65625 L 9.34375 0 C 8.945312 -0.0195312 8.34375 -0.046875 7.53125 -0.078125 C 6.726562 -0.109375 5.90625 -0.125 5.0625 -0.125 C 4.226562 -0.125 3.378906 -0.109375 2.515625 -0.078125 C 1.660156 -0.046875 1.019531 -0.0195312 0.59375 0 L 0.59375 -0.65625 C 1.269531 -0.65625 1.75 -0.804688 2.03125 -1.109375 C 2.3125 -1.421875 2.453125 -2.015625 2.453125 -2.890625 L 2.453125 -20.578125 C 2.453125 -21.492188 2.320312 -22.171875 2.0625 -22.609375 C 1.800781 -23.054688 1.3125 -23.28125 0.59375 -23.28125 L 0.59375 -23.9375 C 1.25 -23.875 1.890625 -23.84375 2.515625 -23.84375 C 3.460938 -23.84375 4.347656 -23.878906 5.171875 -23.953125 C 6.003906 -24.023438 6.773438 -24.132812 7.484375 -24.28125 Z M 7.484375 -24.28125 "/></g></g></g><g fill="#b8860b" fill-opacity="1"><g transform="translate(39.453122, 194.931518)"><g><path d="M 12.578125 -22.421875 C 13.941406 -22.421875 15.0625 -22.21875 15.9375 -21.8125 C 16.820312 -21.40625 17.601562 -20.929688 18.28125 -20.390625 C 18.695312 -20.085938 19.015625 -20.050781 19.234375 -20.28125 C 19.453125 -20.519531 19.601562 -21.085938 19.6875 -21.984375 L 20.390625 -21.984375 C 20.347656 -21.171875 20.316406 -20.175781 20.296875 -19 C 20.285156 -17.820312 20.28125 -16.269531 20.28125 -14.34375 L 19.5625 -14.34375 C 19.476562 -15.3125 19.347656 -16.15625 19.171875 -16.875 C 18.992188 -17.601562 18.738281 -18.25 18.40625 -18.8125 C 18.070312 -19.375 17.597656 -19.867188 16.984375 -20.296875 C 16.503906 -20.691406 15.96875 -21 15.375 -21.21875 C 14.789062 -21.4375 14.1875 -21.546875 13.5625 -21.546875 C 12.425781 -21.546875 11.46875 -21.226562 10.6875 -20.59375 C 9.914062 -19.96875 9.296875 -19.140625 8.828125 -18.109375 C 8.367188 -17.085938 8.039062 -15.953125 7.84375 -14.703125 C 7.644531 -13.453125 7.546875 -12.191406 7.546875 -10.921875 C 7.546875 -9.640625 7.648438 -8.375 7.859375 -7.125 C 8.066406 -5.875 8.398438 -4.738281 8.859375 -3.71875 C 9.328125 -2.707031 9.953125 -1.894531 10.734375 -1.28125 C 11.523438 -0.675781 12.488281 -0.375 13.625 -0.375 C 14.226562 -0.375 14.820312 -0.476562 15.40625 -0.6875 C 16 -0.894531 16.535156 -1.191406 17.015625 -1.578125 C 17.921875 -2.203125 18.535156 -3.015625 18.859375 -4.015625 C 19.179688 -5.023438 19.414062 -6.335938 19.5625 -7.953125 L 20.28125 -7.953125 C 20.28125 -5.941406 20.285156 -4.316406 20.296875 -3.078125 C 20.316406 -1.847656 20.347656 -0.820312 20.390625 0 L 19.6875 0 C 19.601562 -0.882812 19.460938 -1.441406 19.265625 -1.671875 C 19.066406 -1.898438 18.738281 -1.867188 18.28125 -1.578125 C 17.519531 -1.046875 16.707031 -0.578125 15.84375 -0.171875 C 14.988281 0.234375 13.890625 0.4375 12.546875 0.4375 C 10.285156 0.4375 8.300781 -0.00390625 6.59375 -0.890625 C 4.882812 -1.785156 3.554688 -3.070312 2.609375 -4.75 C 1.671875 -6.425781 1.203125 -8.441406 1.203125 -10.796875 C 1.203125 -13.117188 1.6875 -15.148438 2.65625 -16.890625 C 3.632812 -18.628906 4.976562 -19.984375 6.6875 -20.953125 C 8.394531 -21.929688 10.359375 -22.421875 12.578125 -22.421875 Z M 12.578125 -22.421875 "/></g></g></g><g fill="#b8860b" fill-opacity="1"><g transform="translate(61.512515, 194.931518)"><g><path d="M 7.453125 -24.28125 L 7.453125 -13.90625 C 7.972656 -14.863281 8.660156 -15.535156 9.515625 -15.921875 C 10.367188 -16.316406 11.359375 -16.515625 12.484375 -16.515625 C 13.390625 -16.515625 14.117188 -16.398438 14.671875 -16.171875 C 15.222656 -15.941406 15.640625 -15.65625 15.921875 -15.3125 C 16.253906 -14.914062 16.492188 -14.40625 16.640625 -13.78125 C 16.785156 -13.164062 16.859375 -12.328125 16.859375 -11.265625 L 16.859375 -2.890625 C 16.859375 -2.015625 17 -1.421875 17.28125 -1.109375 C 17.5625 -0.804688 18.039062 -0.65625 18.71875 -0.65625 L 18.71875 0 C 18.320312 -0.0195312 17.710938 -0.046875 16.890625 -0.078125 C 16.078125 -0.109375 15.28125 -0.125 14.5 -0.125 C 13.664062 -0.125 12.851562 -0.109375 12.0625 -0.078125 C 11.28125 -0.046875 10.6875 -0.0195312 10.28125 0 L 10.28125 -0.65625 C 10.851562 -0.65625 11.253906 -0.804688 11.484375 -1.109375 C 11.710938 -1.421875 11.828125 -2.015625 11.828125 -2.890625 L 11.828125 -12.765625 C 11.828125 -13.234375 11.773438 -13.640625 11.671875 -13.984375 C 11.566406 -14.328125 11.394531 -14.585938 11.15625 -14.765625 C 10.914062 -14.941406 10.570312 -15.03125 10.125 -15.03125 C 9.644531 -15.03125 9.203125 -14.910156 8.796875 -14.671875 C 8.398438 -14.429688 8.078125 -14.085938 7.828125 -13.640625 C 7.578125 -13.203125 7.453125 -12.691406 7.453125 -12.109375 L 7.453125 -2.890625 C 7.453125 -2.015625 7.570312 -1.421875 7.8125 -1.109375 C 8.050781 -0.804688 8.445312 -0.65625 9 -0.65625 L 9 0 C 8.625 -0.0195312 8.0625 -0.046875 7.3125 -0.078125 C 6.570312 -0.109375 5.8125 -0.125 5.03125 -0.125 C 4.195312 -0.125 3.347656 -0.109375 2.484375 -0.078125 C 1.628906 -0.046875 0.988281 -0.0195312 0.5625 0 L 0.5625 -0.65625 C 1.238281 -0.65625 1.71875 -0.804688 2 -1.109375 C 2.28125 -1.421875 2.421875 -2.015625 2.421875 -2.890625 L 2.421875 -20.546875 C 2.421875 -21.484375 2.289062 -22.171875 2.03125 -22.609375 C 1.769531 -23.054688 1.28125 -23.28125 0.5625 -23.28125 L 0.5625 -23.9375 C 1.21875 -23.875 1.859375 -23.84375 2.484375 -23.84375 C 3.429688 -23.84375 4.316406 -23.878906 5.140625 -23.953125 C 5.972656 -24.023438 6.742188 -24.132812 7.453125 -24.28125 Z M 7.453125 -24.28125 "/></g></g></g><g fill="#b8860b" fill-opacity="1"><g transform="translate(80.593424, 194.931518)"><g><path d="M 4.9375 0.21875 C 3.988281 0.21875 3.203125 0.0351562 2.578125 -0.328125 C 1.953125 -0.691406 1.492188 -1.171875 1.203125 -1.765625 C 0.921875 -2.367188 0.78125 -3.007812 0.78125 -3.6875 C 0.78125 -4.5625 0.976562 -5.273438 1.375 -5.828125 C 1.78125 -6.390625 2.300781 -6.84375 2.9375 -7.1875 C 3.582031 -7.53125 4.253906 -7.8125 4.953125 -8.03125 C 5.660156 -8.257812 6.335938 -8.484375 6.984375 -8.703125 C 7.628906 -8.921875 8.144531 -9.179688 8.53125 -9.484375 C 8.925781 -9.785156 9.125 -10.175781 9.125 -10.65625 L 9.125 -13.21875 C 9.125 -13.675781 9.054688 -14.109375 8.921875 -14.515625 C 8.785156 -14.921875 8.546875 -15.25 8.203125 -15.5 C 7.867188 -15.757812 7.398438 -15.890625 6.796875 -15.890625 C 6.421875 -15.890625 6.054688 -15.835938 5.703125 -15.734375 C 5.359375 -15.628906 5.050781 -15.46875 4.78125 -15.25 C 5.445312 -15.019531 5.9375 -14.675781 6.25 -14.21875 C 6.570312 -13.757812 6.734375 -13.253906 6.734375 -12.703125 C 6.734375 -11.929688 6.46875 -11.320312 5.9375 -10.875 C 5.414062 -10.4375 4.789062 -10.21875 4.0625 -10.21875 C 3.28125 -10.21875 2.675781 -10.460938 2.25 -10.953125 C 1.820312 -11.453125 1.609375 -12.054688 1.609375 -12.765625 C 1.609375 -13.378906 1.765625 -13.898438 2.078125 -14.328125 C 2.390625 -14.753906 2.847656 -15.144531 3.453125 -15.5 C 4.046875 -15.84375 4.765625 -16.097656 5.609375 -16.265625 C 6.460938 -16.429688 7.367188 -16.515625 8.328125 -16.515625 C 9.296875 -16.515625 10.1875 -16.414062 11 -16.21875 C 11.820312 -16.019531 12.523438 -15.632812 13.109375 -15.0625 C 13.554688 -14.582031 13.84375 -14 13.96875 -13.3125 C 14.09375 -12.632812 14.15625 -11.769531 14.15625 -10.71875 L 14.15625 -2.328125 C 14.15625 -1.804688 14.203125 -1.445312 14.296875 -1.25 C 14.390625 -1.0625 14.539062 -0.96875 14.75 -0.96875 C 14.9375 -0.96875 15.109375 -1.015625 15.265625 -1.109375 C 15.429688 -1.210938 15.597656 -1.328125 15.765625 -1.453125 L 16.109375 -0.9375 C 15.660156 -0.5625 15.125 -0.273438 14.5 -0.078125 C 13.875 0.117188 13.203125 0.21875 12.484375 0.21875 C 11.648438 0.21875 11 0.109375 10.53125 -0.109375 C 10.070312 -0.328125 9.742188 -0.617188 9.546875 -0.984375 C 9.347656 -1.359375 9.238281 -1.773438 9.21875 -2.234375 C 8.757812 -1.492188 8.1875 -0.898438 7.5 -0.453125 C 6.820312 -0.00390625 5.96875 0.21875 4.9375 0.21875 Z M 7.515625 -2.015625 C 7.847656 -2.015625 8.140625 -2.082031 8.390625 -2.21875 C 8.648438 -2.351562 8.894531 -2.585938 9.125 -2.921875 L 9.125 -9.375 C 8.957031 -9.082031 8.734375 -8.804688 8.453125 -8.546875 C 8.179688 -8.296875 7.890625 -8.039062 7.578125 -7.78125 C 7.265625 -7.519531 6.96875 -7.234375 6.6875 -6.921875 C 6.40625 -6.609375 6.175781 -6.238281 6 -5.8125 C 5.832031 -5.394531 5.75 -4.882812 5.75 -4.28125 C 5.75 -3.476562 5.910156 -2.898438 6.234375 -2.546875 C 6.566406 -2.191406 6.992188 -2.015625 7.515625 -2.015625 Z M 7.515625 -2.015625 "/></g></g></g><g fill="#b8860b" fill-opacity="1"><g transform="translate(96.850985, 194.931518)"><g><path d="M 12.328125 -16.515625 C 13.210938 -16.515625 13.929688 -16.398438 14.484375 -16.171875 C 15.035156 -15.941406 15.460938 -15.65625 15.765625 -15.3125 C 16.097656 -14.914062 16.335938 -14.398438 16.484375 -13.765625 C 16.628906 -13.140625 16.703125 -12.304688 16.703125 -11.265625 L 16.703125 -2.890625 C 16.703125 -2.015625 16.820312 -1.421875 17.0625 -1.109375 C 17.300781 -0.804688 17.71875 -0.65625 18.3125 -0.65625 L 18.3125 0 C 17.925781 -0.0195312 17.347656 -0.046875 16.578125 -0.078125 C 15.816406 -0.109375 15.070312 -0.125 14.34375 -0.125 C 13.550781 -0.125 12.78125 -0.109375 12.03125 -0.078125 C 11.289062 -0.046875 10.738281 -0.0195312 10.375 0 L 10.375 -0.65625 C 10.84375 -0.65625 11.175781 -0.804688 11.375 -1.109375 C 11.570312 -1.421875 11.671875 -2.015625 11.671875 -2.890625 L 11.671875 -12.765625 C 11.671875 -13.234375 11.628906 -13.640625 11.546875 -13.984375 C 11.460938 -14.328125 11.316406 -14.585938 11.109375 -14.765625 C 10.898438 -14.941406 10.601562 -15.03125 10.21875 -15.03125 C 9.757812 -15.03125 9.328125 -14.90625 8.921875 -14.65625 C 8.523438 -14.40625 8.207031 -14.054688 7.96875 -13.609375 C 7.726562 -13.171875 7.609375 -12.671875 7.609375 -12.109375 L 7.609375 -2.890625 C 7.609375 -2.015625 7.703125 -1.421875 7.890625 -1.109375 C 8.078125 -0.804688 8.414062 -0.65625 8.90625 -0.65625 L 8.90625 0 C 8.550781 -0.0195312 8.019531 -0.046875 7.3125 -0.078125 C 6.613281 -0.109375 5.90625 -0.125 5.1875 -0.125 C 4.332031 -0.125 3.476562 -0.109375 2.625 -0.078125 C 1.78125 -0.046875 1.144531 -0.0195312 0.71875 0 L 0.71875 -0.65625 C 1.394531 -0.65625 1.875 -0.804688 2.15625 -1.109375 C 2.4375 -1.421875 2.578125 -2.015625 2.578125 -2.890625 L 2.578125 -12.703125 C 2.578125 -13.628906 2.441406 -14.316406 2.171875 -14.765625 C 1.898438 -15.210938 1.414062 -15.4375 0.71875 -15.4375 L 0.71875 -16.078125 C 1.375 -16.015625 2.015625 -15.984375 2.640625 -15.984375 C 3.566406 -15.984375 4.445312 -16.019531 5.28125 -16.09375 C 6.125 -16.164062 6.898438 -16.273438 7.609375 -16.421875 L 7.609375 -13.90625 C 8.085938 -14.84375 8.734375 -15.507812 9.546875 -15.90625 C 10.359375 -16.3125 11.285156 -16.515625 12.328125 -16.515625 Z M 21.671875 -16.515625 C 22.554688 -16.515625 23.273438 -16.398438 23.828125 -16.171875 C 24.378906 -15.941406 24.804688 -15.65625 25.109375 -15.3125 C 25.441406 -14.914062 25.679688 -14.398438 25.828125 -13.765625 C 25.972656 -13.140625 26.046875 -12.304688 26.046875 -11.265625 L 26.046875 -2.890625 C 26.046875 -2.015625 26.1875 -1.421875 26.46875 -1.109375 C 26.75 -0.804688 27.226562 -0.65625 27.90625 -0.65625 L 27.90625 0 C 27.5 -0.0195312 26.882812 -0.046875 26.0625 -0.078125 C 25.25 -0.109375 24.457031 -0.125 23.6875 -0.125 C 22.90625 -0.125 22.140625 -0.109375 21.390625 -0.078125 C 20.648438 -0.046875 20.09375 -0.0195312 19.71875 0 L 19.71875 -0.65625 C 20.1875 -0.65625 20.519531 -0.804688 20.71875 -1.109375 C 20.914062 -1.421875 21.015625 -2.015625 21.015625 -2.890625 L 21.015625 -12.765625 C 21.015625 -13.234375 20.960938 -13.640625 20.859375 -13.984375 C 20.753906 -14.328125 20.582031 -14.585938 20.34375 -14.765625 C 20.113281 -14.941406 19.769531 -15.03125 19.3125 -15.03125 C 18.851562 -15.03125 18.421875 -14.890625 18.015625 -14.609375 C 17.617188 -14.328125 17.300781 -13.957031 17.0625 -13.5 C 16.820312 -13.050781 16.679688 -12.546875 16.640625 -11.984375 L 16.453125 -13.53125 C 17.015625 -14.695312 17.75 -15.484375 18.65625 -15.890625 C 19.570312 -16.304688 20.578125 -16.515625 21.671875 -16.515625 Z M 21.671875 -16.515625 "/></g></g></g><g fill="#b8860b" fill-opacity="1"><g transform="translate(125.084526, 194.931518)"><g><path d="M 4.9375 0.21875 C 3.988281 0.21875 3.203125 0.0351562 2.578125 -0.328125 C 1.953125 -0.691406 1.492188 -1.171875 1.203125 -1.765625 C 0.921875 -2.367188 0.78125 -3.007812 0.78125 -3.6875 C 0.78125 -4.5625 0.976562 -5.273438 1.375 -5.828125 C 1.78125 -6.390625 2.300781 -6.84375 2.9375 -7.1875 C 3.582031 -7.53125 4.253906 -7.8125 4.953125 -8.03125 C 5.660156 -8.257812 6.335938 -8.484375 6.984375 -8.703125 C 7.628906 -8.921875 8.144531 -9.179688 8.53125 -9.484375 C 8.925781 -9.785156 9.125 -10.175781 9.125 -10.65625 L 9.125 -13.21875 C 9.125 -13.675781 9.054688 -14.109375 8.921875 -14.515625 C 8.785156 -14.921875 8.546875 -15.25 8.203125 -15.5 C 7.867188 -15.757812 7.398438 -15.890625 6.796875 -15.890625 C 6.421875 -15.890625 6.054688 -15.835938 5.703125 -15.734375 C 5.359375 -15.628906 5.050781 -15.46875 4.78125 -15.25 C 5.445312 -15.019531 5.9375 -14.675781 6.25 -14.21875 C 6.570312 -13.757812 6.734375 -13.253906 6.734375 -12.703125 C 6.734375 -11.929688 6.46875 -11.320312 5.9375 -10.875 C 5.414062 -10.4375 4.789062 -10.21875 4.0625 -10.21875 C 3.28125 -10.21875 2.675781 -10.460938 2.25 -10.953125 C 1.820312 -11.453125 1.609375 -12.054688 1.609375 -12.765625 C 1.609375 -13.378906 1.765625 -13.898438 2.078125 -14.328125 C 2.390625 -14.753906 2.847656 -15.144531 3.453125 -15.5 C 4.046875 -15.84375 4.765625 -16.097656 5.609375 -16.265625 C 6.460938 -16.429688 7.367188 -16.515625 8.328125 -16.515625 C 9.296875 -16.515625 10.1875 -16.414062 11 -16.21875 C 11.820312 -16.019531 12.523438 -15.632812 13.109375 -15.0625 C 13.554688 -14.582031 13.84375 -14 13.96875 -13.3125 C 14.09375 -12.632812 14.15625 -11.769531 14.15625 -10.71875 L 14.15625 -2.328125 C 14.15625 -1.804688 14.203125 -1.445312 14.296875 -1.25 C 14.390625 -1.0625 14.539062 -0.96875 14.75 -0.96875 C 14.9375 -0.96875 15.109375 -1.015625 15.265625 -1.109375 C 15.429688 -1.210938 15.597656 -1.328125 15.765625 -1.453125 L 16.109375 -0.9375 C 15.660156 -0.5625 15.125 -0.273438 14.5 -0.078125 C 13.875 0.117188 13.203125 0.21875 12.484375 0.21875 C 11.648438 0.21875 11 0.109375 10.53125 -0.109375 C 10.070312 -0.328125 9.742188 -0.617188 9.546875 -0.984375 C 9.347656 -1.359375 9.238281 -1.773438 9.21875 -2.234375 C 8.757812 -1.492188 8.1875 -0.898438 7.5 -0.453125 C 6.820312 -0.00390625 5.96875 0.21875 4.9375 0.21875 Z M 7.515625 -2.015625 C 7.847656 -2.015625 8.140625 -2.082031 8.390625 -2.21875 C 8.648438 -2.351562 8.894531 -2.585938 9.125 -2.921875 L 9.125 -9.375 C 8.957031 -9.082031 8.734375 -8.804688 8.453125 -8.546875 C 8.179688 -8.296875 7.890625 -8.039062 7.578125 -7.78125 C 7.265625 -7.519531 6.96875 -7.234375 6.6875 -6.921875 C 6.40625 -6.609375 6.175781 -6.238281 6 -5.8125 C 5.832031 -5.394531 5.75 -4.882812 5.75 -4.28125 C 5.75 -3.476562 5.910156 -2.898438 6.234375 -2.546875 C 6.566406 -2.191406 6.992188 -2.015625 7.515625 -2.015625 Z M 7.515625 -2.015625 "/></g></g></g><g fill="#b8860b" fill-opacity="1"><g transform="translate(141.342087, 194.931518)"><g><path d="M 7.015625 -16.515625 C 7.921875 -16.515625 8.707031 -16.410156 9.375 -16.203125 C 10.039062 -15.992188 10.523438 -15.796875 10.828125 -15.609375 C 11.554688 -15.160156 11.992188 -15.453125 12.140625 -16.484375 L 12.796875 -16.484375 C 12.753906 -15.878906 12.722656 -15.160156 12.703125 -14.328125 C 12.679688 -13.492188 12.671875 -12.367188 12.671875 -10.953125 L 12.015625 -10.953125 C 11.929688 -11.722656 11.75 -12.476562 11.46875 -13.21875 C 11.1875 -13.96875 10.773438 -14.582031 10.234375 -15.0625 C 9.703125 -15.550781 9.003906 -15.796875 8.140625 -15.796875 C 7.578125 -15.796875 7.101562 -15.628906 6.71875 -15.296875 C 6.332031 -14.972656 6.140625 -14.519531 6.140625 -13.9375 C 6.140625 -13.320312 6.328125 -12.773438 6.703125 -12.296875 C 7.078125 -11.816406 7.554688 -11.359375 8.140625 -10.921875 C 8.734375 -10.492188 9.332031 -10.03125 9.9375 -9.53125 C 10.59375 -9.03125 11.1875 -8.523438 11.71875 -8.015625 C 12.25 -7.515625 12.671875 -6.96875 12.984375 -6.375 C 13.304688 -5.789062 13.46875 -5.082031 13.46875 -4.25 C 13.46875 -3.320312 13.1875 -2.503906 12.625 -1.796875 C 12.070312 -1.097656 11.335938 -0.550781 10.421875 -0.15625 C 9.515625 0.238281 8.503906 0.4375 7.390625 0.4375 C 6.703125 0.4375 6.101562 0.367188 5.59375 0.234375 C 5.09375 0.0976562 4.675781 -0.0703125 4.34375 -0.28125 C 4.03125 -0.425781 3.753906 -0.550781 3.515625 -0.65625 C 3.285156 -0.757812 3.054688 -0.832031 2.828125 -0.875 C 2.617188 -0.894531 2.441406 -0.800781 2.296875 -0.59375 C 2.148438 -0.382812 2.035156 -0.113281 1.953125 0.21875 L 1.296875 0.21875 C 1.335938 -0.445312 1.367188 -1.253906 1.390625 -2.203125 C 1.410156 -3.148438 1.421875 -4.410156 1.421875 -5.984375 L 2.078125 -5.984375 C 2.203125 -4.867188 2.4375 -3.882812 2.78125 -3.03125 C 3.125 -2.1875 3.582031 -1.519531 4.15625 -1.03125 C 4.738281 -0.550781 5.421875 -0.3125 6.203125 -0.3125 C 6.554688 -0.3125 6.882812 -0.378906 7.1875 -0.515625 C 7.488281 -0.648438 7.738281 -0.859375 7.9375 -1.140625 C 8.132812 -1.429688 8.234375 -1.804688 8.234375 -2.265625 C 8.234375 -3.171875 7.941406 -3.929688 7.359375 -4.546875 C 6.773438 -5.160156 6.0625 -5.828125 5.21875 -6.546875 C 4.550781 -7.109375 3.929688 -7.65625 3.359375 -8.1875 C 2.796875 -8.726562 2.332031 -9.316406 1.96875 -9.953125 C 1.601562 -10.597656 1.421875 -11.328125 1.421875 -12.140625 C 1.421875 -13.066406 1.6875 -13.859375 2.21875 -14.515625 C 2.75 -15.171875 3.4375 -15.664062 4.28125 -16 C 5.132812 -16.34375 6.046875 -16.515625 7.015625 -16.515625 Z M 7.015625 -16.515625 "/></g></g></g><g fill="#b8860b" fill-opacity="1"><g transform="translate(155.831173, 194.931518)"><g><path d="M 0.96875 -21.984375 C 1.519531 -21.960938 2.257812 -21.941406 3.1875 -21.921875 C 4.125 -21.898438 5.054688 -21.890625 5.984375 -21.890625 C 7.003906 -21.890625 7.984375 -21.898438 8.921875 -21.921875 C 9.867188 -21.941406 10.535156 -21.953125 10.921875 -21.953125 C 13.617188 -21.953125 15.632812 -21.492188 16.96875 -20.578125 C 18.300781 -19.671875 18.96875 -18.503906 18.96875 -17.078125 C 18.96875 -16.347656 18.726562 -15.601562 18.25 -14.84375 C 17.78125 -14.09375 17.050781 -13.421875 16.0625 -12.828125 C 15.082031 -12.242188 13.828125 -11.835938 12.296875 -11.609375 L 12.296875 -11.546875 C 14.328125 -11.421875 15.945312 -11.070312 17.15625 -10.5 C 18.363281 -9.9375 19.234375 -9.257812 19.765625 -8.46875 C 20.304688 -7.6875 20.578125 -6.867188 20.578125 -6.015625 C 20.578125 -4.671875 20.21875 -3.550781 19.5 -2.65625 C 18.789062 -1.769531 17.769531 -1.101562 16.4375 -0.65625 C 15.101562 -0.21875 13.503906 0 11.640625 0 C 11.140625 0 10.414062 -0.015625 9.46875 -0.046875 C 8.519531 -0.078125 7.378906 -0.09375 6.046875 -0.09375 C 5.078125 -0.09375 4.125 -0.0859375 3.1875 -0.078125 C 2.257812 -0.0664062 1.519531 -0.0390625 0.96875 0 L 0.96875 -0.625 C 1.601562 -0.664062 2.082031 -0.75 2.40625 -0.875 C 2.726562 -1 2.945312 -1.242188 3.0625 -1.609375 C 3.175781 -1.984375 3.234375 -2.546875 3.234375 -3.296875 L 3.234375 -18.6875 C 3.234375 -19.457031 3.175781 -20.019531 3.0625 -20.375 C 2.945312 -20.738281 2.726562 -20.988281 2.40625 -21.125 C 2.082031 -21.257812 1.601562 -21.335938 0.96875 -21.359375 Z M 10.65625 -21.359375 C 9.90625 -21.359375 9.414062 -21.179688 9.1875 -20.828125 C 8.957031 -20.472656 8.84375 -19.757812 8.84375 -18.6875 L 8.84375 -3.296875 C 8.84375 -2.566406 8.898438 -2.015625 9.015625 -1.640625 C 9.128906 -1.273438 9.332031 -1.03125 9.625 -0.90625 C 9.914062 -0.78125 10.347656 -0.71875 10.921875 -0.71875 C 12.253906 -0.71875 13.222656 -1.1875 13.828125 -2.125 C 14.441406 -3.070312 14.75 -4.410156 14.75 -6.140625 C 14.75 -7.734375 14.359375 -8.960938 13.578125 -9.828125 C 12.804688 -10.703125 11.519531 -11.140625 9.71875 -11.140625 L 7.265625 -11.140625 C 7.265625 -11.140625 7.265625 -11.226562 7.265625 -11.40625 C 7.265625 -11.582031 7.265625 -11.671875 7.265625 -11.671875 L 9.9375 -11.671875 C 10.820312 -11.671875 11.503906 -11.90625 11.984375 -12.375 C 12.460938 -12.84375 12.789062 -13.460938 12.96875 -14.234375 C 13.15625 -15.015625 13.25 -15.847656 13.25 -16.734375 C 13.25 -18.265625 13.046875 -19.414062 12.640625 -20.1875 C 12.242188 -20.96875 11.582031 -21.359375 10.65625 -21.359375 Z M 10.65625 -21.359375 "/></g></g></g><g fill="#b8860b" fill-opacity="1"><g transform="translate(177.176978, 194.931518)"><g><path d="M 8.84375 -16.515625 C 10.394531 -16.515625 11.753906 -16.238281 12.921875 -15.6875 C 14.097656 -15.144531 15.007812 -14.25 15.65625 -13 C 16.3125 -11.757812 16.640625 -10.109375 16.640625 -8.046875 C 16.640625 -5.972656 16.3125 -4.3125 15.65625 -3.0625 C 15.007812 -1.820312 14.097656 -0.925781 12.921875 -0.375 C 11.753906 0.164062 10.394531 0.4375 8.84375 0.4375 C 7.3125 0.4375 5.960938 0.164062 4.796875 -0.375 C 3.628906 -0.925781 2.710938 -1.820312 2.046875 -3.0625 C 1.390625 -4.3125 1.0625 -5.972656 1.0625 -8.046875 C 1.0625 -10.109375 1.390625 -11.757812 2.046875 -13 C 2.710938 -14.25 3.628906 -15.144531 4.796875 -15.6875 C 5.960938 -16.238281 7.3125 -16.515625 8.84375 -16.515625 Z M 8.84375 -15.890625 C 8.125 -15.890625 7.519531 -15.273438 7.03125 -14.046875 C 6.539062 -12.816406 6.296875 -10.816406 6.296875 -8.046875 C 6.296875 -5.265625 6.539062 -3.257812 7.03125 -2.03125 C 7.519531 -0.800781 8.125 -0.1875 8.84375 -0.1875 C 9.59375 -0.1875 10.203125 -0.800781 10.671875 -2.03125 C 11.148438 -3.257812 11.390625 -5.265625 11.390625 -8.046875 C 11.390625 -10.816406 11.148438 -12.816406 10.671875 -14.046875 C 10.203125 -15.273438 9.59375 -15.890625 8.84375 -15.890625 Z M 8.84375 -15.890625 "/></g></g></g><g fill="#b8860b" fill-opacity="1"><g transform="translate(194.861729, 194.931518)"><g><path d="M 16.609375 -16.421875 L 16.609375 -3.390625 C 16.609375 -2.453125 16.75 -1.757812 17.03125 -1.3125 C 17.3125 -0.875 17.789062 -0.65625 18.46875 -0.65625 L 18.46875 0 C 17.832031 -0.0625 17.191406 -0.09375 16.546875 -0.09375 C 15.597656 -0.09375 14.710938 -0.0625 13.890625 0 C 13.078125 0.0625 12.304688 0.175781 11.578125 0.34375 L 11.578125 -2.171875 C 11.078125 -1.242188 10.398438 -0.578125 9.546875 -0.171875 C 8.691406 0.234375 7.710938 0.4375 6.609375 0.4375 C 5.703125 0.4375 4.972656 0.320312 4.421875 0.09375 C 3.867188 -0.132812 3.453125 -0.4375 3.171875 -0.8125 C 2.835938 -1.175781 2.597656 -1.675781 2.453125 -2.3125 C 2.304688 -2.945312 2.234375 -3.78125 2.234375 -4.8125 L 2.234375 -12.703125 C 2.234375 -13.628906 2.097656 -14.316406 1.828125 -14.765625 C 1.554688 -15.210938 1.070312 -15.4375 0.375 -15.4375 L 0.375 -16.078125 C 1.03125 -16.015625 1.671875 -15.984375 2.296875 -15.984375 C 3.242188 -15.984375 4.128906 -16.019531 4.953125 -16.09375 C 5.785156 -16.164062 6.554688 -16.273438 7.265625 -16.421875 L 7.265625 -3.328125 C 7.265625 -2.847656 7.316406 -2.441406 7.421875 -2.109375 C 7.523438 -1.773438 7.703125 -1.515625 7.953125 -1.328125 C 8.203125 -1.148438 8.53125 -1.0625 8.9375 -1.0625 C 9.414062 -1.0625 9.847656 -1.179688 10.234375 -1.421875 C 10.628906 -1.671875 10.953125 -2.019531 11.203125 -2.46875 C 11.453125 -2.914062 11.578125 -3.414062 11.578125 -3.96875 L 11.578125 -12.703125 C 11.578125 -13.628906 11.441406 -14.316406 11.171875 -14.765625 C 10.898438 -15.210938 10.414062 -15.4375 9.71875 -15.4375 L 9.71875 -16.078125 C 10.382812 -16.015625 11.023438 -15.984375 11.640625 -15.984375 C 12.597656 -15.984375 13.488281 -16.019531 14.3125 -16.09375 C 15.132812 -16.164062 15.898438 -16.273438 16.609375 -16.421875 Z M 16.609375 -16.421875 "/></g></g></g><g fill="#b8860b" fill-opacity="1"><g transform="translate(213.911608, 194.931518)"><g><path d="M 7.453125 -21.140625 L 7.453125 -16.078125 L 10.796875 -16.078125 L 10.796875 -15.46875 L 7.453125 -15.46875 L 7.453125 -2.765625 C 7.453125 -2.242188 7.546875 -1.875 7.734375 -1.65625 C 7.921875 -1.4375 8.195312 -1.328125 8.5625 -1.328125 C 8.875 -1.328125 9.203125 -1.429688 9.546875 -1.640625 C 9.890625 -1.847656 10.207031 -2.203125 10.5 -2.703125 L 10.984375 -2.390625 C 10.597656 -1.546875 10.054688 -0.863281 9.359375 -0.34375 C 8.671875 0.175781 7.765625 0.4375 6.640625 0.4375 C 5.960938 0.4375 5.359375 0.347656 4.828125 0.171875 C 4.296875 -0.00390625 3.859375 -0.269531 3.515625 -0.625 C 3.054688 -1.070312 2.757812 -1.632812 2.625 -2.3125 C 2.488281 -2.988281 2.421875 -3.863281 2.421875 -4.9375 L 2.421875 -15.46875 L -0.0625 -15.46875 L -0.0625 -16.078125 L 2.421875 -16.078125 L 2.421875 -19.96875 C 3.390625 -19.96875 4.28125 -20.054688 5.09375 -20.234375 C 5.914062 -20.421875 6.703125 -20.722656 7.453125 -21.140625 Z M 7.453125 -21.140625 "/></g></g></g><g fill="#b8860b" fill-opacity="1"><g transform="translate(224.801684, 194.931518)"><g><path d="M 4.875 -24.1875 C 5.84375 -24.1875 6.597656 -23.96875 7.140625 -23.53125 C 7.691406 -23.09375 7.96875 -22.460938 7.96875 -21.640625 C 7.96875 -20.804688 7.691406 -20.171875 7.140625 -19.734375 C 6.597656 -19.304688 5.84375 -19.09375 4.875 -19.09375 C 3.894531 -19.09375 3.128906 -19.304688 2.578125 -19.734375 C 2.035156 -20.171875 1.765625 -20.804688 1.765625 -21.640625 C 1.765625 -22.460938 2.035156 -23.09375 2.578125 -23.53125 C 3.128906 -23.96875 3.894531 -24.1875 4.875 -24.1875 Z M 7.609375 -16.421875 L 7.609375 -2.890625 C 7.609375 -2.015625 7.742188 -1.421875 8.015625 -1.109375 C 8.296875 -0.804688 8.78125 -0.65625 9.46875 -0.65625 L 9.46875 0 C 9.050781 -0.0195312 8.4375 -0.046875 7.625 -0.078125 C 6.820312 -0.109375 6.007812 -0.125 5.1875 -0.125 C 4.351562 -0.125 3.503906 -0.109375 2.640625 -0.078125 C 1.785156 -0.046875 1.144531 -0.0195312 0.71875 0 L 0.71875 -0.65625 C 1.394531 -0.65625 1.875 -0.804688 2.15625 -1.109375 C 2.4375 -1.421875 2.578125 -2.015625 2.578125 -2.890625 L 2.578125 -12.703125 C 2.578125 -13.628906 2.441406 -14.316406 2.171875 -14.765625 C 1.898438 -15.210938 1.414062 -15.4375 0.71875 -15.4375 L 0.71875 -16.078125 C 1.375 -16.015625 2.015625 -15.984375 2.640625 -15.984375 C 3.566406 -15.984375 4.445312 -16.019531 5.28125 -16.09375 C 6.125 -16.164062 6.898438 -16.273438 7.609375 -16.421875 Z M 7.609375 -16.421875 "/></g></g></g><g fill="#b8860b" fill-opacity="1"><g transform="translate(234.823038, 194.931518)"><g><path d="M 7.921875 -16.515625 C 8.765625 -16.515625 9.519531 -16.429688 10.1875 -16.265625 C 10.863281 -16.097656 11.484375 -15.757812 12.046875 -15.25 L 11.640625 -14.90625 C 11.347656 -15.257812 11 -15.507812 10.59375 -15.65625 C 10.195312 -15.8125 9.789062 -15.890625 9.375 -15.890625 C 8.363281 -15.890625 7.597656 -15.238281 7.078125 -13.9375 C 6.554688 -12.632812 6.296875 -10.671875 6.296875 -8.046875 C 6.296875 -6.265625 6.40625 -4.859375 6.625 -3.828125 C 6.84375 -2.804688 7.144531 -2.085938 7.53125 -1.671875 C 7.914062 -1.265625 8.34375 -1.0625 8.8125 -1.0625 C 9.457031 -1.0625 10.03125 -1.3125 10.53125 -1.8125 C 11.039062 -2.320312 11.316406 -3 11.359375 -3.84375 L 11.421875 -2.546875 C 11.066406 -1.554688 10.550781 -0.8125 9.875 -0.3125 C 9.207031 0.1875 8.390625 0.4375 7.421875 0.4375 C 6.242188 0.4375 5.164062 0.144531 4.1875 -0.4375 C 3.21875 -1.03125 2.453125 -1.957031 1.890625 -3.21875 C 1.335938 -4.488281 1.0625 -6.128906 1.0625 -8.140625 C 1.0625 -10.015625 1.347656 -11.566406 1.921875 -12.796875 C 2.503906 -14.035156 3.304688 -14.960938 4.328125 -15.578125 C 5.359375 -16.203125 6.554688 -16.515625 7.921875 -16.515625 Z M 16.109375 -16.578125 L 16.546875 -16.296875 C 16.460938 -16.023438 16.40625 -15.738281 16.375 -15.4375 C 16.34375 -15.144531 16.328125 -14.851562 16.328125 -14.5625 L 16.328125 2.796875 C 16.328125 3.640625 16.460938 4.210938 16.734375 4.515625 C 17.003906 4.816406 17.46875 4.96875 18.125 4.96875 L 18.125 5.625 C 17.738281 5.601562 17.160156 5.578125 16.390625 5.546875 C 15.628906 5.515625 14.84375 5.5 14.03125 5.5 C 12.957031 5.5 11.914062 5.515625 10.90625 5.546875 C 9.90625 5.578125 9.125 5.601562 8.5625 5.625 L 8.5625 4.96875 C 9.4375 4.96875 10.109375 4.800781 10.578125 4.46875 C 11.054688 4.132812 11.296875 3.472656 11.296875 2.484375 L 11.296875 -15.671875 C 11.898438 -15.535156 12.515625 -15.484375 13.140625 -15.515625 C 13.773438 -15.554688 14.351562 -15.675781 14.875 -15.875 C 15.40625 -16.070312 15.816406 -16.304688 16.109375 -16.578125 Z M 16.109375 -16.578125 "/></g></g></g><g fill="#b8860b" fill-opacity="1"><g transform="translate(253.221375, 194.931518)"><g><path d="M 16.609375 -16.421875 L 16.609375 -3.390625 C 16.609375 -2.453125 16.75 -1.757812 17.03125 -1.3125 C 17.3125 -0.875 17.789062 -0.65625 18.46875 -0.65625 L 18.46875 0 C 17.832031 -0.0625 17.191406 -0.09375 16.546875 -0.09375 C 15.597656 -0.09375 14.710938 -0.0625 13.890625 0 C 13.078125 0.0625 12.304688 0.175781 11.578125 0.34375 L 11.578125 -2.171875 C 11.078125 -1.242188 10.398438 -0.578125 9.546875 -0.171875 C 8.691406 0.234375 7.710938 0.4375 6.609375 0.4375 C 5.703125 0.4375 4.972656 0.320312 4.421875 0.09375 C 3.867188 -0.132812 3.453125 -0.4375 3.171875 -0.8125 C 2.835938 -1.175781 2.597656 -1.675781 2.453125 -2.3125 C 2.304688 -2.945312 2.234375 -3.78125 2.234375 -4.8125 L 2.234375 -12.703125 C 2.234375 -13.628906 2.097656 -14.316406 1.828125 -14.765625 C 1.554688 -15.210938 1.070312 -15.4375 0.375 -15.4375 L 0.375 -16.078125 C 1.03125 -16.015625 1.671875 -15.984375 2.296875 -15.984375 C 3.242188 -15.984375 4.128906 -16.019531 4.953125 -16.09375 C 5.785156 -16.164062 6.554688 -16.273438 7.265625 -16.421875 L 7.265625 -3.328125 C 7.265625 -2.847656 7.316406 -2.441406 7.421875 -2.109375 C 7.523438 -1.773438 7.703125 -1.515625 7.953125 -1.328125 C 8.203125 -1.148438 8.53125 -1.0625 8.9375 -1.0625 C 9.414062 -1.0625 9.847656 -1.179688 10.234375 -1.421875 C 10.628906 -1.671875 10.953125 -2.019531 11.203125 -2.46875 C 11.453125 -2.914062 11.578125 -3.414062 11.578125 -3.96875 L 11.578125 -12.703125 C 11.578125 -13.628906 11.441406 -14.316406 11.171875 -14.765625 C 10.898438 -15.210938 10.414062 -15.4375 9.71875 -15.4375 L 9.71875 -16.078125 C 10.382812 -16.015625 11.023438 -15.984375 11.640625 -15.984375 C 12.597656 -15.984375 13.488281 -16.019531 14.3125 -16.09375 C 15.132812 -16.164062 15.898438 -16.273438 16.609375 -16.421875 Z M 16.609375 -16.421875 "/></g></g></g><g fill="#b8860b" fill-opacity="1"><g transform="translate(272.271269, 194.931518)"><g><path d="M 8.84375 -16.515625 C 10.664062 -16.515625 12.09375 -15.972656 13.125 -14.890625 C 14.164062 -13.816406 14.6875 -12.050781 14.6875 -9.59375 L 4.71875 -9.59375 L 4.6875 -10.1875 L 10.46875 -10.1875 C 10.507812 -11.195312 10.46875 -12.128906 10.34375 -12.984375 C 10.21875 -13.847656 10.015625 -14.535156 9.734375 -15.046875 C 9.453125 -15.566406 9.082031 -15.828125 8.625 -15.828125 C 8.007812 -15.828125 7.484375 -15.378906 7.046875 -14.484375 C 6.609375 -13.597656 6.335938 -12.09375 6.234375 -9.96875 L 6.359375 -9.75 C 6.316406 -9.519531 6.296875 -9.285156 6.296875 -9.046875 C 6.296875 -8.804688 6.296875 -8.554688 6.296875 -8.296875 C 6.296875 -6.859375 6.488281 -5.710938 6.875 -4.859375 C 7.257812 -4.015625 7.738281 -3.414062 8.3125 -3.0625 C 8.894531 -2.71875 9.5 -2.546875 10.125 -2.546875 C 10.476562 -2.546875 10.867188 -2.597656 11.296875 -2.703125 C 11.734375 -2.804688 12.1875 -3.019531 12.65625 -3.34375 C 13.132812 -3.675781 13.59375 -4.164062 14.03125 -4.8125 L 14.5625 -4.625 C 14.332031 -3.820312 13.941406 -3.03125 13.390625 -2.25 C 12.847656 -1.476562 12.148438 -0.835938 11.296875 -0.328125 C 10.453125 0.179688 9.429688 0.4375 8.234375 0.4375 C 6.859375 0.4375 5.632812 0.15625 4.5625 -0.40625 C 3.488281 -0.976562 2.632812 -1.878906 2 -3.109375 C 1.375 -4.347656 1.0625 -5.960938 1.0625 -7.953125 C 1.0625 -9.910156 1.398438 -11.519531 2.078125 -12.78125 C 2.765625 -14.050781 3.695312 -14.988281 4.875 -15.59375 C 6.050781 -16.207031 7.375 -16.515625 8.84375 -16.515625 Z M 8.84375 -16.515625 "/></g></g></g></svg>