<svg xmlns="http://www.w3.org/2000/svg" viewBox="-0.5 -0.5 16 16" fill="#000000" id="Magnifying-Glass--Streamline-Phosphor.svg" height="16" width="16"><desc>Magnifying Glass Streamline Icon: https://streamlinehq.com</desc><path d="m14.684490234375 13.8853359375 -3.5347675781250003 -3.5340585937499998c3.06458203125 -3.679224609375 0.99706640625 -9.29625 -3.721529296875 -10.110644531250001C2.709603515625 -0.573755859375 -1.121126953125 4.025273437499999 0.5328867187499999 8.518892578125001c1.4847421875 4.0337578125 6.5156835937499995 5.381789062499999 9.818390625000001 2.6308300781250002l3.5340585937499998 3.5347675781250003c0.30759375 0.30759375 0.832822265625 0.166857421875 0.9454101562500001 -0.25331835937499997 0.05225390625 -0.19501171874999998 -0.0034980468750000003 -0.403078125 -0.14625585937500002 -0.5458359375ZM1.29515625 6.378105468749999c0 -3.9128554687499997 4.2357890625 -6.35839453125 7.624423828125001 -4.4019609375 3.38862890625 1.9564277343749998 3.38862890625 6.847494140625 0 8.803921875 -0.7726406250000001 0.4460859375 -1.64930859375 0.680947265625 -2.541474609375 0.68098828125 -2.805943359375 -0.0031171874999999997 -5.079837890625 -2.277005859375 -5.08294921875 -5.08294921875Z" stroke-width="1"></path></svg>