<svg xmlns="http://www.w3.org/2000/svg" viewBox="-0.5 -0.5 16 16" fill="#000000" id="Shopping-Cart--Streamline-Phosphor.svg" height="16" width="16"><desc>Shopping Cart Streamline Icon: https://streamlinehq.com</desc><path d="M14.721779296875 3.067212890625c-0.103453125 -0.123796875 -0.256482421875 -0.19532812500000002 -0.417814453125 -0.195298828125H3.326490234375l-0.41373046874999997 -2.274837890625c-0.04702734375 -0.25885546875 -0.27244921875 -0.44703515625 -0.5355351562499999 -0.447076171875H0.694400390625C0.27533203125 0.15043359375 0.013886718749999999 0.6043593749999999 0.22379882812500002 0.967060546875c0.097212890625 0.16798242187499998 0.276515625 0.2715 0.47060156249999996 0.271705078125h1.224861328125l1.739302734375 9.546427734375001c0.051234375 0.283119140625 0.176349609375 0.5476757812499999 0.36269531250000003 0.7668984375 -1.071896484375 1.001173828125 -0.658025390625 2.787263671875 0.7449609375 3.214962890625 1.402986328125 0.42769921875 2.7428496093750003 -0.823763671875 2.411759765625 -2.25263671875 -0.031013671875 -0.13383984375 -0.07641210937500001 -0.2639296875 -0.1353984375 -0.388001953125h3.090732421875c-0.12179296874999998 0.25496484375 -0.184810546875 0.534017578125 -0.184412109375 0.81657421875 0 1.46673046875 1.5877851562499998 2.38344140625 2.858009765625 1.6500703125 1.270224609375 -0.733365234375 1.270224609375 -2.566775390625 0 -3.300140625 -0.289623046875 -0.16721484375 -0.618240234375 -0.255251953125 -0.952669921875 -0.25526953125H5.2651699218750005c-0.263091796875 -0.00003515625 -0.48850781249999997 -0.188220703125 -0.5355351562499999 -0.4470703125l-0.21571289062500001 -1.186078125h7.89355078125c0.78926953125 -0.0001171875 1.4655234375000001 -0.564662109375 1.60660546875 -1.34122265625l0.8274609374999999 -4.54967578125c0.028359375 -0.15919921875 -0.015521484375000002 -0.32276953125 -0.11975976562499999 -0.44639062500000004ZM6.13822265625 12.942990234375c0 0.6285996093749999 -0.6804785156250001 1.0214765625 -1.224861328125 0.7071738281250001 -0.5443828125000001 -0.314296875 -0.5443828125000001 -1.1000449218750001 0 -1.4143476562500001 0.12413671874999999 -0.07166601562500001 0.26494921875 -0.109400390625 0.408287109375 -0.109400390625 0.450984375 0 0.81657421875 0.365595703125 0.81657421875 0.81657421875Zm6.53259375 0c0 0.6285996093749999 -0.6804785156250001 1.0214765625 -1.224861328125 0.7071738281250001 -0.5443828125000001 -0.314296875 -0.5443828125000001 -1.1000449218750001 0 -1.4143476562500001 0.12413671874999999 -0.07166601562500001 0.26494921875 -0.109400390625 0.408287109375 -0.109400390625 0.450984375 0 0.81657421875 0.365595703125 0.81657421875 0.81657421875Zm0.27219140625000005 -5.07432421875c-0.047162109375 0.259611328125 -0.27371484375 0.448025390625 -0.537580078125 0.447076171875H4.315904296875L3.5245078125 3.9606796875000003h10.126880859375Z" stroke-width="1"></path></svg>