<svg xmlns="http://www.w3.org/2000/svg" fill="none" viewBox="0 0 48 48" id="Star--Streamline-Ionic-Filled.svg" height="48" width="48"><desc>Star Streamline Icon: https://streamlinehq.com</desc><path fill="#dcb958" d="M36.937 44.9994c-0.3157 0.0013 -0.6238 -0.0972 -0.8803 -0.2812l-12.057 -8.7411 -12.0571 8.7411c-0.2576 0.1868 -0.5679 0.2869 -0.8861 0.2857 -0.3182 -0.0012 -0.6278 -0.1035 -0.884 -0.2922 -0.25623 -0.1887 -0.44579 -0.454 -0.54132 -0.7575 -0.09553 -0.3035 -0.09206 -0.6296 0.00994 -0.931L14.3436 29.095 2.1562 20.7373c-0.26398 -0.1809 -0.46322 -0.4414 -0.56861 -0.7436 -0.10538 -0.3021 -0.11139 -0.63 -0.01714 -0.9358 0.09425 -0.3058 0.28382 -0.5734 0.541 -0.7637 0.25719 -0.1904 0.56852 -0.2936 0.88849 -0.2944H18.0354l4.5374 -13.96392c0.0978 -0.30146 0.2885 -0.56423 0.5448 -0.7506 0.2564 -0.18637 0.5651 -0.28674 0.8821 -0.28674 0.3169 0 0.6257 0.10037 0.8821 0.28674 0.2563 0.18637 0.4469 0.44914 0.5447 0.7506L29.964 18.0045h15.0354c0.3203 -0.0002 0.6324 0.1023 0.8903 0.2922 0.258 0.19 0.4483 0.4577 0.5432 0.7637 0.0948 0.306 0.0892 0.6344 -0.0161 0.9369 -0.1053 0.3026 -0.3047 0.5635 -0.569 0.7446l-12.192 8.3531 4.6996 13.9245c0.0761 0.2253 0.0976 0.4657 0.0625 0.701 -0.0351 0.2354 -0.1257 0.459 -0.2642 0.6525 -0.1386 0.1934 -0.3212 0.3511 -0.5328 0.46 -0.2115 0.109 -0.446 0.166 -0.6839 0.1664Z" stroke-width="1"></path></svg>